# Blender v2.79 (sub 0) OBJ File: ''
# www.blender.org
mtllib brick.mtl
o Cube.001
v -0.132152 -1.000000 1.000000
v -0.132152 -1.000000 -1.000000
v 0.132152 -1.000000 -1.000000
v 0.132152 1.000000 -1.000000
v -0.132152 1.000000 -0.999999
v -0.132152 1.000000 1.000001
v 0.132152 -1.000000 1.000000
v 0.132152 1.000000 1.000000
vt 0.132152 0.500000
vt 0.132152 1.000000
vt 0.066076 1.000000
vt 0.066076 1.000000
vt 0.000000 1.000000
vt 0.000000 0.500000
vt 0.500000 0.000000
vt 0.500000 0.500000
vt 0.000000 0.500000
vt 0.198228 1.000000
vt 0.198228 0.500000
vt 0.264304 0.500000
vt 1.000000 0.500000
vt 0.500000 0.500000
vt 0.500000 0.000000
vt 0.198228 0.500000
vt 0.198228 1.000000
vt 0.132152 1.000000
vt 0.066076 0.500000
vt 0.066076 0.500000
vt 0.000000 0.000000
vt 0.264304 1.000000
vt 1.000000 0.000000
vt 0.132152 0.500000
vn 0.0000 -1.0000 -0.0000
vn 0.0000 1.0000 0.0000
vn -1.0000 0.0000 0.0000
vn 0.0000 -0.0000 1.0000
vn 1.0000 0.0000 0.0000
vn -0.0000 0.0000 -1.0000
usemtl None
s 1
f 1/1/1 2/2/1 3/3/1
f 4/4/2 5/5/2 6/6/2
f 5/7/3 2/8/3 1/9/3
f 6/10/4 1/11/4 7/12/4
f 7/13/5 3/14/5 4/15/5
f 2/16/6 5/17/6 4/18/6
f 1/1/1 3/3/1 7/19/1
f 4/4/2 6/6/2 8/20/2
f 5/7/3 1/9/3 6/21/3
f 6/10/4 7/12/4 8/22/4
f 7/13/5 4/15/5 8/23/5
f 2/16/6 4/18/6 3/24/6
