# Blender v2.79 (sub 0) OBJ File: ''
# www.blender.org
mtllib muro.mtl
o Cube_Cube.001
v 15.000001 -1.413175 -15.000001
v 15.000001 -1.413180 15.000001
v -15.000001 -1.413180 15.000001
v -15.000001 -1.413175 -15.000001
v -15.000001 1.586820 15.000001
v -15.000001 1.586825 -15.000001
v 12.977484 -1.413175 -12.977484
v -12.977484 1.586825 -12.977484
v -12.977484 -1.413175 -12.977484
v -12.977484 -1.413179 12.977484
v 12.977484 1.586821 12.977484
v 12.977484 -1.413179 12.977484
v 15.000001 1.586820 15.000001
v -12.977484 1.586821 12.977484
v 12.977484 1.586825 -12.977484
v 15.000001 1.586825 -15.000001
vt 0.739316 0.945211
vt -5.739316 2.122959
vt -5.739316 0.945211
vt 0.945211 0.739316
vt 2.122959 -5.739316
vt 0.945211 -5.739316
vt 0.302544 0.945211
vt -5.302544 2.122959
vt -5.302544 0.945211
vt 0.697456 0.945211
vt 6.302544 2.122959
vt 6.302544 0.945211
vt 0.260684 0.739316
vt 0.697456 -5.302544
vt 0.260684 -5.739316
vt 0.739316 0.739316
vt -5.302544 0.302544
vt -5.739316 0.739316
vt 0.260684 0.260684
vt 6.302544 0.697456
vt 6.739316 0.260684
vt 0.739316 0.260684
vt 0.302544 6.302544
vt 0.739316 6.739316
vt 0.260684 0.945211
vt 6.739316 2.122959
vt 6.739316 0.945211
vt 0.945211 0.302544
vt 2.122959 -5.302544
vt 0.945211 -5.302544
vt 0.945211 0.697456
vt 2.122959 6.302544
vt 0.945211 6.302544
vt 0.945211 0.260684
vt 2.122959 6.739316
vt 0.945211 6.739316
vt 0.739316 2.122959
vt 2.122959 0.739316
vt 0.302544 2.122959
vt 0.697456 2.122959
vt 0.697456 0.302544
vt 0.302544 0.302544
vt 0.697456 0.697456
vt 0.302544 0.697456
vt 0.260684 2.122959
vt 2.122959 0.302544
vt 2.122959 0.697456
vt 2.122959 0.260684
vn 0.7071 0.0000 0.7071
vn -0.5774 0.5773 0.5774
vn -0.7071 0.0000 0.7071
vn -0.5774 0.5774 -0.5774
vn -0.7071 0.0000 -0.7071
vn 0.3015 0.9045 0.3015
vn 0.7071 0.0000 -0.7071
vn -0.3015 0.9045 -0.3015
vn 0.5774 0.5773 0.5774
vn 0.3015 0.9045 -0.3015
vn -0.3015 0.9045 0.3015
vn 0.5774 0.5774 -0.5774
usemtl None
s 1
f 2/1/1 5/2/2 3/3/3
f 3/4/3 6/5/4 4/6/5
f 7/7/3 8/8/6 9/9/1
f 10/10/7 11/11/8 12/12/5
f 5/13/2 8/14/6 6/15/4
f 13/16/9 14/17/10 5/18/2
f 6/19/4 15/20/11 16/21/12
f 16/22/12 11/23/8 13/24/9
f 4/25/5 16/26/12 1/27/7
f 12/28/5 15/29/11 7/30/3
f 9/31/1 14/32/10 10/33/7
f 1/34/7 13/35/9 2/36/1
f 2/1/1 13/37/9 5/2/2
f 3/4/3 5/38/2 6/5/4
f 7/7/3 15/39/11 8/8/6
f 10/10/7 14/40/10 11/11/8
f 5/13/2 14/41/10 8/14/6
f 13/16/9 11/42/8 14/17/10
f 6/19/4 8/43/6 15/20/11
f 16/22/12 15/44/11 11/23/8
f 4/25/5 6/45/4 16/26/12
f 12/28/5 11/46/8 15/29/11
f 9/31/1 8/47/6 14/32/10
f 1/34/7 16/48/12 13/35/9
